<mxfile host="app.diagrams.net" modified="2023-10-23T22:23:18.056Z" agent="Mozilla/5.0 (Windows NT 10.0; Win64; x64) AppleWebKit/537.36 (KHTML, like Gecko) Chrome/118.0.0.0 Safari/537.36" etag="VxxRF1rgL0FxOwWqlMuW" version="22.0.6" type="github">
  <diagram name="Page-1" id="Lu7rClmH97Iy44Z2vaqc">
    <mxGraphModel dx="1434" dy="758" grid="1" gridSize="10" guides="1" tooltips="1" connect="1" arrows="1" fold="1" page="1" pageScale="1" pageWidth="850" pageHeight="1100" math="0" shadow="0">
      <root>
        <mxCell id="0" />
        <mxCell id="1" parent="0" />
        <mxCell id="MFKnkEsMKbE0ufnuSgNO-6" style="edgeStyle=orthogonalEdgeStyle;rounded=0;orthogonalLoop=1;jettySize=auto;html=1;" edge="1" parent="1" source="MFKnkEsMKbE0ufnuSgNO-1" target="MFKnkEsMKbE0ufnuSgNO-2">
          <mxGeometry relative="1" as="geometry" />
        </mxCell>
        <mxCell id="MFKnkEsMKbE0ufnuSgNO-1" value="start" style="rhombus;whiteSpace=wrap;html=1;" vertex="1" parent="1">
          <mxGeometry x="200" y="140" width="180" height="80" as="geometry" />
        </mxCell>
        <mxCell id="MFKnkEsMKbE0ufnuSgNO-7" style="edgeStyle=orthogonalEdgeStyle;rounded=0;orthogonalLoop=1;jettySize=auto;html=1;" edge="1" parent="1" source="MFKnkEsMKbE0ufnuSgNO-2" target="MFKnkEsMKbE0ufnuSgNO-3">
          <mxGeometry relative="1" as="geometry" />
        </mxCell>
        <mxCell id="MFKnkEsMKbE0ufnuSgNO-2" value="user input for name" style="rounded=0;whiteSpace=wrap;html=1;" vertex="1" parent="1">
          <mxGeometry x="230" y="250" width="120" height="60" as="geometry" />
        </mxCell>
        <mxCell id="MFKnkEsMKbE0ufnuSgNO-8" style="edgeStyle=orthogonalEdgeStyle;rounded=0;orthogonalLoop=1;jettySize=auto;html=1;" edge="1" parent="1" source="MFKnkEsMKbE0ufnuSgNO-3" target="MFKnkEsMKbE0ufnuSgNO-5">
          <mxGeometry relative="1" as="geometry" />
        </mxCell>
        <mxCell id="MFKnkEsMKbE0ufnuSgNO-3" value="flip letters" style="rounded=0;whiteSpace=wrap;html=1;" vertex="1" parent="1">
          <mxGeometry x="230" y="350" width="120" height="60" as="geometry" />
        </mxCell>
        <mxCell id="MFKnkEsMKbE0ufnuSgNO-4" value="end" style="rhombus;whiteSpace=wrap;html=1;" vertex="1" parent="1">
          <mxGeometry x="250" y="540" width="80" height="80" as="geometry" />
        </mxCell>
        <mxCell id="MFKnkEsMKbE0ufnuSgNO-9" style="edgeStyle=orthogonalEdgeStyle;rounded=0;orthogonalLoop=1;jettySize=auto;html=1;" edge="1" parent="1" source="MFKnkEsMKbE0ufnuSgNO-5" target="MFKnkEsMKbE0ufnuSgNO-4">
          <mxGeometry relative="1" as="geometry" />
        </mxCell>
        <mxCell id="MFKnkEsMKbE0ufnuSgNO-5" value="output flipped name" style="rounded=0;whiteSpace=wrap;html=1;" vertex="1" parent="1">
          <mxGeometry x="230" y="440" width="120" height="60" as="geometry" />
        </mxCell>
      </root>
    </mxGraphModel>
  </diagram>
</mxfile>
